<svg data-v-29081953="" xmlns="http://www.w3.org/2000/svg" viewBox="0 0 300 300"><!----><defs data-v-29081953=""><linearGradient data-v-29081953="" gradientTransform="rotate(25)" id="e2b52e52-8f72-4b3f-bf95-b5b642213d37" x1="0%" y1="0%" x2="100%" y2="0%"><stop data-v-29081953="" offset="0%" stop-color="#410FF8" stop-opacity="1"></stop><stop data-v-29081953="" offset="100%" stop-color="#410FF8" stop-opacity="1"></stop></linearGradient></defs><rect data-v-29081953="" fill="url(#e2b52e52-8f72-4b3f-bf95-b5b642213d37)" x="0" y="0" width="300px" height="300px" class="logo-background-square"></rect><defs data-v-29081953=""><!----></defs><g data-v-29081953="" id="8bbbb9d3-dbd3-475b-aff6-109c9aba6af0" fill="#ffffff" transform="matrix(4.87922698570251,0,0,4.87922698570251,-1.9391329181717207,176.95555563310876)"><path d="M5.33 11.76L5.33 11.84C5.33 12.96 4.91 13.73 3.46 13.73C1.96 13.73 1.55 12.94 1.55 11.23L1.55 8.88C1.55 7.11 2.03 6.44 3.49 6.44C4.90 6.44 5.29 7.14 5.29 8.25L5.29 8.33L5.96 8.33L5.96 8.25C5.96 6.66 5.29 5.81 3.50 5.81C1.74 5.81 0.85 6.59 0.85 8.88L0.85 11.26C0.85 13.54 1.67 14.35 3.44 14.35C5.28 14.35 5.99 13.48 5.99 11.84L5.99 11.76ZM7.84 5.98L7.84 14.18L8.53 14.18L8.53 8.67C8.53 7.29 9.38 6.57 10.53 6.57C10.71 6.57 10.85 6.58 10.98 6.59L10.98 5.88C10.88 5.87 10.71 5.85 10.57 5.85C9.55 5.85 8.85 6.41 8.53 6.97L8.46 5.98ZM14.36 14.71C13.99 15.97 13.61 16.30 12.88 16.30C12.60 16.30 12.40 16.27 12.18 16.18L12.18 16.90C12.42 16.98 12.64 17.02 12.94 17.02C14.03 17.02 14.67 16.49 15.25 14.49L17.67 5.98L16.88 5.98L14.88 13.50L12.54 5.98L11.77 5.98L14.46 14.38ZM21.73 14.35C23.13 14.35 24.23 13.58 24.23 11.28L24.23 8.93C24.23 6.92 23.42 5.81 21.76 5.81C20.79 5.81 20.08 6.16 19.67 6.79L19.61 5.98L19.00 5.98L19.00 16.88L19.68 16.88L19.68 13.43C20.02 13.97 20.78 14.35 21.73 14.35ZM19.68 8.37C19.68 7.11 20.48 6.44 21.64 6.44C22.97 6.44 23.53 7.27 23.53 8.90L23.53 11.23C23.53 13.09 22.82 13.73 21.64 13.73C20.54 13.73 19.68 13.17 19.68 11.56ZM28.14 13.71C27.17 13.71 26.77 13.38 26.77 11.98L26.77 6.76L28.84 6.76L28.84 6.15L26.77 6.15L26.77 4.20L26.07 4.20L26.07 11.98C26.07 13.59 26.54 14.35 28.03 14.35C28.36 14.35 28.70 14.29 28.85 14.25L28.85 13.62C28.66 13.66 28.41 13.71 28.14 13.71ZM31.01 8.93C31.01 7 31.47 6.44 32.94 6.44C34.40 6.44 34.86 7 34.86 8.93L34.86 11.23C34.86 13.17 34.40 13.73 32.94 13.73C31.47 13.73 31.01 13.17 31.01 11.23ZM32.94 5.81C31.12 5.81 30.31 6.52 30.31 8.90L30.31 11.26C30.31 13.64 31.12 14.35 32.94 14.35C34.75 14.35 35.56 13.64 35.56 11.26L35.56 8.90C35.56 6.52 34.75 5.81 32.94 5.81ZM37.95 12.28C37.95 8.78 42.59 10.26 42.59 6.15C42.59 4.27 41.59 3.35 39.83 3.35C38.25 3.35 37.11 4.10 37.11 6.23L37.76 6.23C37.76 4.51 38.63 3.99 39.77 3.99C41.01 3.99 41.86 4.49 41.86 6.19C41.86 9.81 37.24 8.18 37.24 12.43L37.24 14.18L42.66 14.18L42.66 13.52L37.95 13.52ZM46.66 16.42C45.43 16.42 45.00 15.89 44.94 15.01L44.28 15.01C44.35 16.39 45.07 17.02 46.65 17.02C48.45 17.02 49.32 16.27 49.32 13.76L49.32 5.98L48.68 5.98L48.64 6.78C48.27 6.19 47.53 5.81 46.62 5.81C45.21 5.81 44.09 6.59 44.09 8.88L44.09 11.13C44.09 13.13 44.84 14.24 46.52 14.24C47.47 14.24 48.20 13.93 48.62 13.27L48.62 13.83C48.62 15.71 48.19 16.42 46.66 16.42ZM44.79 8.93C44.79 7.07 45.56 6.44 46.72 6.44C47.78 6.44 48.62 6.99 48.62 8.60L48.62 11.68C48.62 12.94 47.82 13.62 46.68 13.62C45.35 13.62 44.79 12.78 44.79 11.16ZM52.25 5.98L51.56 5.98L51.56 14.18L52.25 14.18ZM52.26 3.22L51.55 3.22L51.55 4.14L52.26 4.14ZM55.17 5.99C55.17 4.47 55.57 3.88 56.92 3.88C57.13 3.88 57.32 3.91 57.44 3.92L57.44 3.32C57.27 3.29 57.11 3.28 56.85 3.28C55.15 3.28 54.49 4.03 54.49 6.03L54.49 14.18L55.17 14.18L55.17 6.75L57.15 6.75L57.15 6.13L55.17 6.13ZM60.72 13.71C59.75 13.71 59.35 13.38 59.35 11.98L59.35 6.76L61.42 6.76L61.42 6.15L59.35 6.15L59.35 4.20L58.65 4.20L58.65 11.98C58.65 13.59 59.12 14.35 60.61 14.35C60.94 14.35 61.28 14.29 61.43 14.25L61.43 13.62C61.24 13.66 60.98 13.71 60.72 13.71Z"></path></g><defs data-v-29081953=""><!----></defs><g data-v-29081953="" id="185ff9e2-2838-4e82-898a-62b0869a7f2e" stroke="none" fill="#ffffff" transform="matrix(1.6287498586653606,0,0,1.6287498586653606,76.70788654516379,34.287974295366084)"><path d="M45 5.507c.757 0 1.493.164 1.97.439l29.786 17.197-29.794 17.29c-.475.275-1.209.44-1.963.44s-1.488-.164-1.962-.439l-29.8-17.287L43.03 5.946c.476-.275 1.213-.439 1.97-.439m0-2c-1.077 0-2.153.236-2.97.708L12.214 21.429c-1.634.943-1.635 2.489-.003 3.436l29.822 17.3c.815.473 1.891.709 2.966.709 1.076 0 2.151-.237 2.967-.71l29.815-17.302c1.632-.947 1.63-2.493-.004-3.437L47.97 4.214c-.817-.471-1.893-.707-2.97-.707zM9.872 28.793l29.871 17.328c1.013.588 1.971 2.25 1.971 3.421v34.494L11.842 66.79c-1.013-.584-1.97-2.243-1.97-3.412V28.793m-.355-2.157c-.973 0-1.645.776-1.645 2.114v34.628c0 1.887 1.336 4.201 2.97 5.145l29.901 17.263c.473.273.922.402 1.32.402.977 0 1.65-.777 1.65-2.117V49.542c0-1.887-1.335-4.204-2.967-5.151l-29.908-17.35c-.473-.274-.922-.405-1.321-.405zM80.127 28.786v34.592c0 1.169-.958 2.827-1.971 3.412l-29.87 17.246V49.542c0-1.171.958-2.834 1.971-3.422l29.87-17.334m.355-2.157c-.398 0-.848.13-1.322.405L49.253 44.391c-1.632.947-2.967 3.265-2.967 5.151V84.07c0 1.34.675 2.117 1.65 2.117.398 0 .847-.129 1.32-.402l29.899-17.263c1.634-.943 2.971-3.258 2.971-5.145V28.742c.001-1.338-.671-2.113-1.644-2.113z"></path></g><!----></svg>